<?xml version="1.0" standalone="no"?><!DOCTYPE svg PUBLIC "-//W3C//DTD SVG 1.1//EN" "http://www.w3.org/Graphics/SVG/1.1/DTD/svg11.dtd"><svg t="1578559620585" class="icon" viewBox="0 0 1024 1024" version="1.1" xmlns="http://www.w3.org/2000/svg" p-id="38672" width="32" height="32" xmlns:xlink="http://www.w3.org/1999/xlink"><defs><style type="text/css"></style></defs><path d="M322.37037 227.555556h417.185186c22.755556 0 37.925926 15.17037 37.925925 37.925925s-15.17037 37.925926-37.925925 37.925926H322.37037c-22.755556 0-37.925926-15.17037-37.925926-37.925926s15.17037-37.925926 37.925926-37.925925zM322.37037 455.111111h303.407408c22.755556 0 37.925926 15.17037 37.925926 37.925926s-15.17037 37.925926-37.925926 37.925926H322.37037c-22.755556 0-37.925926-15.17037-37.925926-37.925926s15.17037-37.925926 37.925926-37.925926zM322.37037 682.666667h151.703704c22.755556 0 37.925926 15.17037 37.925926 37.925926s-15.17037 37.925926-37.925926 37.925926H322.37037c-22.755556 0-37.925926-15.17037-37.925926-37.925926s15.17037-37.925926 37.925926-37.925926z" p-id="38673"></path></svg>