<?xml version="1.0" standalone="no"?><!DOCTYPE svg PUBLIC "-//W3C//DTD SVG 1.1//EN" "http://www.w3.org/Graphics/SVG/1.1/DTD/svg11.dtd"><svg t="1578637328837" class="icon" viewBox="0 0 1024 1024" version="1.1" xmlns="http://www.w3.org/2000/svg" p-id="55883" xmlns:xlink="http://www.w3.org/1999/xlink" width="32" height="32"><defs><style type="text/css"></style></defs><path d="M286.8224 537.6a26.5216 26.5216 0 0 1-28.4672-24.1664 26.112 26.112 0 0 1 28.4672-26.9824h403.7632c14.8992-0.8192 27.648 9.984 28.4672 24.1152a26.112 26.112 0 0 1-28.4672 26.9824H286.8224z m2.048 153.1904c-14.848 1.792-28.4672-8.1408-30.3616-22.1184-1.8432-13.9776 8.704-26.7264 23.552-28.4672a28.9792 28.9792 0 0 1 6.8096 0h277.4016c15.0016 0 27.136 11.4176 27.136 25.4976s-12.1344 25.4976-27.136 25.4976l-277.4016-0.4096zM285.4912 384c-15.0016 0-27.1872-11.4688-27.1872-25.6s12.1856-25.6 27.136-25.6h406.528c14.9504 0 27.136 11.4688 27.136 25.6s-12.1856 25.6-27.136 25.6h-406.528z" fill="#1296db" p-id="55884"></path></svg>